<svg width="72" height="72" viewBox="0 0 72 72" fill="none" xmlns="http://www.w3.org/2000/svg">
<g clip-path="url(#clip0_34_2)">
<path d="M20.5 0H1.5C0.671573 0 0 0.671573 0 1.5V20.5C0 21.3284 0.671573 22 1.5 22H20.5C21.3284 22 22 21.3284 22 20.5V1.5C22 0.671573 21.3284 0 20.5 0Z" fill="#F17358"/>
<path d="M45.5 0H26.5C25.6716 0 25 0.671573 25 1.5V20.5C25 21.3284 25.6716 22 26.5 22H45.5C46.3284 22 47 21.3284 47 20.5V1.5C47 0.671573 46.3284 0 45.5 0Z" fill="#F17358"/>
<path d="M70.5 0H51.5C50.6716 0 50 0.671573 50 1.5V20.5C50 21.3284 50.6716 22 51.5 22H70.5C71.3284 22 72 21.3284 72 20.5V1.5C72 0.671573 71.3284 0 70.5 0Z" fill="#F17358"/>
<path d="M20.5 25H1.5C0.671573 25 0 25.6716 0 26.5V45.5C0 46.3284 0.671573 47 1.5 47H20.5C21.3284 47 22 46.3284 22 45.5V26.5C22 25.6716 21.3284 25 20.5 25Z" fill="#F17358"/>
<path d="M70.5 25H51.5C50.6716 25 50 25.6716 50 26.5V45.5C50 46.3284 50.6716 47 51.5 47H70.5C71.3284 47 72 46.3284 72 45.5V26.5C72 25.6716 71.3284 25 70.5 25Z" fill="#F17358"/>
<path d="M45.5 25H26.5C25.6716 25 25 25.6716 25 26.5V45.5C25 46.3284 25.6716 47 26.5 47H45.5C46.3284 47 47 46.3284 47 45.5V26.5C47 25.6716 46.3284 25 45.5 25Z" fill="#F17358"/>
<path d="M20.5 50H1.5C0.671573 50 0 50.6716 0 51.5V70.5C0 71.3284 0.671573 72 1.5 72H20.5C21.3284 72 22 71.3284 22 70.5V51.5C22 50.6716 21.3284 50 20.5 50Z" fill="#F17358"/>
<path d="M45.5 50H26.5C25.6716 50 25 50.6716 25 51.5V70.5C25 71.3284 25.6716 72 26.5 72H45.5C46.3284 72 47 71.3284 47 70.5V51.5C47 50.6716 46.3284 50 45.5 50Z" fill="#F17358"/>
<path d="M70.5 50H51.5C50.6716 50 50 50.6716 50 51.5V70.5C50 71.3284 50.6716 72 51.5 72H70.5C71.3284 72 72 71.3284 72 70.5V51.5C72 50.6716 71.3284 50 70.5 50Z" fill="#F17358"/>
</g>
<defs>
<clipPath id="clip0_34_2">
<rect width="72" height="72" fill="white"/>
</clipPath>
</defs>
</svg>
